# xmcd
#
# Track frame offsets:
#	150
#	13967
#	28081
#	43575
#	60519
#	76278
#	92345
#	110563
#	124748
#	140469
#	155384
#	168144
#	197062
#
# Disc length: 3935 seconds
#
# Revision: 1
# Processed by: cddbd v1.4b42PL1 Copyright (c) Steve Scherf et al.
# Submitted via: audiograbber 1.80
#
DISCID=a10f5d0d
DTITLE=Limite - Por Encima De Todo
DYEAR=1900
DGENRE=
TTITLE0=Capricho Loco
TTITLE1=Acariciame
TTITLE2=Toque De Amor
TTITLE3=Noche A Noche
TTITLE4=Si No Estas Aqui
TTITLE5=El Amor De Mi Vida
TTITLE6=Veneno
TTITLE7=Para No Morir De Amor
TTITLE8=No Me Mires Asi
TTITLE9=Ya No Hay Amor
TTITLE10=Por Encima De Todo
TTITLE11=Acuerdate
TTITLE12=Pista de Datos
EXTD=
EXTT0=
EXTT1=
EXTT2=
EXTT3=
EXTT4=
EXTT5=
EXTT6=
EXTT7=
EXTT8=
EXTT9=
EXTT10=
EXTT11=
EXTT12=
PLAYORDER=
